<svg xmlns="http://www.w3.org/2000/svg" width="24" height="24" viewBox="0 0 24 24">
  <g id="Group_343" data-name="Group 343" transform="translate(-747 -995)">
    <rect id="Rectangle_293" data-name="Rectangle 293" width="24" height="24" transform="translate(747 995)" fill="none"/>
    <path id="add" d="M8.806,0a8.806,8.806,0,1,0,8.806,8.806A8.806,8.806,0,0,0,8.806,0Zm2.935,9.539h-2.2v2.2a.734.734,0,0,1-1.468,0v-2.2H5.87a.734.734,0,0,1,0-1.468h2.2V5.87a.734.734,0,0,1,1.468,0v2.2h2.2a.734.734,0,1,1,0,1.468Z" transform="translate(750.194 998.194)" fill="#ef5b0c"/>
  </g>
</svg>
